<?xml version="1.0" encoding="UTF-8" standalone="no"?>
<!DOCTYPE svg PUBLIC "-//W3C//DTD SVG 1.1//EN" "http://www.w3.org/Graphics/SVG/1.1/DTD/svg11.dtd">
<svg width="100%" height="100%" viewBox="0 0 18 18" version="1.1" xmlns="http://www.w3.org/2000/svg" xmlns:xlink="http://www.w3.org/1999/xlink" xml:space="preserve" xmlns:serif="http://www.serif.com/" style="fill-rule:evenodd;clip-rule:evenodd;stroke-linejoin:round;stroke-miterlimit:2;">
    <g transform="matrix(-1,1.22298e-16,-1.22298e-16,-1,18.0504,18.9546)" fill="#fff">
        <path d="M9.9,3C9.9,2.503 9.497,2.1 9,2.1C8.503,2.1 8.1,2.503 8.1,3L9.9,3ZM8.364,16.636C8.715,16.988 9.285,16.988 9.636,16.636L15.364,10.909C15.715,10.557 15.715,9.988 15.364,9.636C15.012,9.285 14.443,9.285 14.091,9.636L9,14.727L3.909,9.636C3.557,9.285 2.988,9.285 2.636,9.636C2.285,9.988 2.285,10.557 2.636,10.909L8.364,16.636ZM8.1,3L8.1,16L9.9,16L9.9,3L8.1,3Z"
        style="fill-rule:nonzero;"/>
    </g>
</svg>
