<?xml version="1.0" encoding="UTF-8" standalone="no"?>
<!DOCTYPE svg PUBLIC "-//W3C//DTD SVG 1.1//EN" "http://www.w3.org/Graphics/SVG/1.1/DTD/svg11.dtd">
<svg width="100%" height="100%" viewBox="0 0 500 500" version="1.1" xmlns="http://www.w3.org/2000/svg" xmlns:xlink="http://www.w3.org/1999/xlink" xml:space="preserve" xmlns:serif="http://www.serif.com/" style="fill-rule:evenodd;clip-rule:evenodd;stroke-linejoin:round;stroke-miterlimit:2;">
    <g>
        <path d="M125.801,327.366L126.064,327.827C153.607,375.743 205.305,408.008 264.536,408.008L266.314,407.998C324.673,407.361 375.518,375.393 402.827,328.132L473.102,368.843C469.653,375.073 464.417,380.288 457.332,384.388C400.158,417.35 342.934,450.209 285.785,483.207C270.373,492.105 255.435,491.782 240.136,482.755C217.388,469.332 103.453,404.07 69.505,384.408C62.42,380.307 57.184,375.095 53.735,368.86L125.801,327.366ZM333.462,287.948C319.748,311.8 294.024,327.876 264.536,327.876C234.993,327.876 209.239,311.744 195.539,287.828L195.276,287.364L264.075,247.751L333.462,287.948Z" style="fill:rgb(40,0,104);fill-rule:nonzero;"/>
        <path d="M478.098,148.979C478.095,140.864 476.36,133.694 472.85,127.54L264.075,247.751L473.102,368.843C476.452,362.782 478.117,355.75 478.12,347.812C478.12,347.812 478.12,215.27 478.098,148.979ZM387.916,202.477L387.916,225.114L410.553,225.114L410.553,202.477L421.872,202.477L421.872,225.114L444.509,225.114L444.509,236.433L421.872,236.433L421.872,259.07L444.509,259.07L444.509,270.389L421.872,270.389L421.872,293.026L410.553,293.026L410.553,270.389L387.916,270.389L387.916,293.026L376.597,293.026L376.597,270.389L353.96,270.389L353.96,259.07L376.597,259.07L376.597,236.433L353.96,236.433L353.96,225.114L376.597,225.114L376.597,202.477L387.916,202.477ZM410.553,236.433L387.916,236.433L387.916,259.07L410.553,259.07L410.553,236.433Z" style="fill:rgb(57,0,145);fill-rule:nonzero;"/>
        <g transform="matrix(1.68011,0,0,1.68011,48.7149,7.09027)">
            <path d="M201.892,116.294L201.892,129.768L215.366,129.768L215.366,116.294L222.103,116.294L222.103,129.768L235.577,129.768L235.577,136.505L222.103,136.505L222.103,149.978L235.577,149.978L235.577,156.715L222.103,156.715L222.103,170.189L215.366,170.189L215.366,156.715L201.892,156.715L201.892,170.189L195.155,170.189L195.155,156.715L181.682,156.715L181.682,149.978L195.155,149.978L195.155,136.505L181.682,136.505L181.682,129.768L195.155,129.768L195.155,116.294L201.892,116.294ZM215.366,136.505L201.892,136.505L201.892,149.978L215.366,149.978L215.366,136.505Z" style="fill:white;fill-rule:nonzero;"/>
        </g>
        <g transform="matrix(1.68011,0,0,1.68011,48.7149,7.09027)">
            <path d="M128.457,48.626C163.601,48.626 194.284,67.712 210.719,96.082L210.558,95.809L169.21,119.617C161.063,105.824 146.128,96.515 128.996,96.323L128.457,96.32C102.331,96.32 81.151,117.5 81.151,143.625C81.151,152.169 83.428,160.178 87.39,167.095C95.544,181.33 110.873,190.931 128.457,190.931C146.15,190.931 161.566,181.208 169.678,166.821L169.481,167.166L210.768,191.084C194.513,219.213 164.25,238.241 129.515,238.62L128.457,238.626C93.202,238.626 62.432,219.422 46.038,190.902C38.035,176.979 33.456,160.838 33.456,143.625C33.456,91.159 75.988,48.626 128.457,48.626Z" style="fill:white;fill-rule:nonzero;"/>
        </g>
        <path d="M125.801,327.366L53.735,368.86L53.579,368.575C50.328,362.579 48.715,355.643 48.715,347.83C48.737,281.54 48.715,215.253 48.737,148.964C48.74,132.865 55.543,120.48 69.523,112.387C103.47,92.724 217.389,27.457 240.143,14.038C255.435,5.016 270.373,4.692 285.78,13.586C342.927,46.582 400.148,79.443 457.314,112.405C464.239,116.416 469.402,121.488 472.85,127.54L402.478,168.059C374.803,120.649 323.393,88.787 264.536,88.787C176.384,88.787 104.925,160.248 104.925,248.396C104.925,277.124 112.517,304.077 125.801,327.366ZM474.418,366.222L474.415,366.23L474.288,366.506L474.278,366.528L474.155,366.789L474.138,366.824L474.02,367.07L473.997,367.118L473.883,367.351L473.853,367.41L473.743,367.63L473.707,367.701L473.6,367.91L473.559,367.989L473.453,368.192L473.409,368.276L473.298,368.482L473.257,368.561L473.102,368.843C473.154,368.749 473.206,368.655 473.257,368.561L473.406,368.281L473.411,368.272L473.453,368.192L473.555,367.998L473.562,367.985L473.6,367.91L473.701,367.714L473.71,367.695L473.743,367.63L473.845,367.428L473.856,367.405L473.883,367.351L473.986,367.14L474,367.113L474.02,367.07L474.125,366.852L474.141,366.82L474.155,366.789L474.262,366.562L474.396,366.27L474.418,366.222C476.844,360.88 478.075,354.854 478.119,348.183L478.12,347.812C478.117,354.631 476.888,360.781 474.418,366.222ZM402.476,168.06L264.075,247.751L195.276,287.364C188.783,275.848 185.057,262.56 185.057,248.396C185.057,204.503 220.642,168.919 264.536,168.919L265.443,168.924C294.226,169.246 319.318,184.885 333.005,208.06L402.475,168.06L402.476,168.06Z" style="fill:rgb(161,121,220);fill-rule:nonzero;"/>
    </g>
</svg>
