<?xml version="1.0" encoding="UTF-8" standalone="no"?>
<!DOCTYPE svg PUBLIC "-//W3C//DTD SVG 1.1//EN" "http://www.w3.org/Graphics/SVG/1.1/DTD/svg11.dtd">
<svg width="100%" height="100%" viewBox="0 0 500 500" version="1.1" xmlns="http://www.w3.org/2000/svg" xmlns:xlink="http://www.w3.org/1999/xlink" xml:space="preserve" xmlns:serif="http://www.serif.com/" style="fill-rule:evenodd;clip-rule:evenodd;stroke-linejoin:round;stroke-miterlimit:2;">
    <g transform="matrix(5.21143,0,0,5.21143,-71.3115,-81.5866)">
        <path d="M65.265,24.128C73.511,23.965 79.338,26.201 84.352,33.318C95.286,60.427 56.205,74.418 54.638,74.968L54.589,74.984C54.589,74.984 53.409,82.347 64.617,82.064C78.41,82.064 92.911,71.373 98.427,66.854C99.749,65.767 101.71,65.883 102.895,67.119L107.025,71.409C108.223,72.644 108.26,74.62 107.11,75.9C103.52,79.897 95.096,88.103 82.414,93.404C82.414,93.404 61.254,103.202 46.994,93.924C38.491,88.394 36.152,81.773 35.201,74.886C35.206,74.886 24.877,74.362 18.244,71.772C11.609,69.18 18.293,61.361 18.293,61.361C18.293,61.361 20.333,58.128 24.213,61.361C28.096,64.589 35.343,63.133 35.343,63.133C35.989,58.034 37.063,51.305 40.227,44.203C46.859,29.318 57.016,24.288 65.265,24.128ZM70.118,39.043C65.749,34.833 53.134,43.245 52.647,62.493C52.647,62.493 56.371,63.627 64.617,57.963C72.867,52.302 74.487,43.245 70.118,39.043Z" style="fill:rgb(224,78,57);"/>
    </g>
</svg>
