<?xml version="1.0" encoding="UTF-8" standalone="no"?>
<!DOCTYPE svg PUBLIC "-//W3C//DTD SVG 1.1//EN" "http://www.w3.org/Graphics/SVG/1.1/DTD/svg11.dtd">
<svg width="100%" height="100%" viewBox="0 0 500 500" version="1.1" xmlns="http://www.w3.org/2000/svg" xmlns:xlink="http://www.w3.org/1999/xlink" xml:space="preserve" xmlns:serif="http://www.serif.com/" style="fill-rule:evenodd;clip-rule:evenodd;stroke-linejoin:round;stroke-miterlimit:2;">
    <g transform="matrix(1.27327,0,0,1.26527,-99.5294,-82.7726)">
        <circle cx="333.786" cy="266.349" r="62.63" style="fill:rgb(26,188,254);"/>
    </g>
    <g transform="matrix(1.27327,0,0,1.26527,-99.5294,-82.7726)">
        <circle cx="333.786" cy="266.349" r="62.63" style="fill:rgb(26,188,254);"/>
    </g>
    <g transform="matrix(1,0,0,1,0,-0.288206)">
        <path d="M245.038,417.73C241.179,457.271 207.086,488.238 165.658,488.238C121.645,488.238 85.913,453.288 85.913,410.24C85.913,367.192 121.645,332.243 165.658,332.243C168.043,332.243 245.073,332.216 245.073,332.216L245.038,417.73Z" style="fill:rgb(9,207,131);"/>
    </g>
    <g transform="matrix(1,0,0,1,-1,0)">
        <path d="M324.313,18.481C324.313,18.481 324.987,18.486 325.325,18.486C369.258,18.486 404.928,53.631 404.928,96.873C404.928,140.115 369.244,174.776 325.311,174.776C322.429,174.776 317.846,174.763 316.79,174.776L246.026,174.776L246.026,18.481L324.313,18.481Z" style="fill:rgb(255,114,98);"/>
    </g>
    <g transform="matrix(-1,0,0,1,490.978,0)">
        <path d="M324.313,18.481C324.313,18.481 324.987,18.486 325.325,18.486C369.258,18.486 404.928,53.631 404.928,96.873C404.928,140.115 369.244,174.776 325.311,174.776C322.429,174.776 317.846,174.763 316.79,174.776L246.026,174.776L246.026,18.481L324.313,18.481Z" style="fill:rgb(241,78,29);"/>
    </g>
    <g transform="matrix(-1,0,0,1,490.978,156.854)">
        <path d="M324.313,18.481C324.313,18.481 324.987,18.486 325.325,18.486C369.258,18.486 404.928,53.631 404.928,96.873C404.928,140.115 369.244,174.776 325.311,174.776C322.429,174.776 317.846,174.763 316.79,174.776L246.026,174.776L246.026,18.481L324.313,18.481Z" style="fill:rgb(161,89,254);"/>
    </g>
</svg>
