<svg width="142" height="38" viewBox="0 0 142 38" fill="none" xmlns="http://www.w3.org/2000/svg">
<g clip-path="url(#clip0_870_740)">
<path d="M32.4221 11.0879C27.1151 11.0879 23.0735 15.136 23.0735 20.2038C23.0735 25.2716 27.1217 29.2523 32.3264 29.2523C37.5312 29.2523 41.6119 25.1716 41.6119 20.2038C41.6271 15.1839 37.5725 11.1031 32.5525 11.0879C32.509 11.0879 32.4655 11.0879 32.4221 11.0879ZM32.2851 25.9195C29.6653 25.9195 27.2173 23.641 27.2173 20.306C27.2173 16.7688 29.4284 14.4555 32.3873 14.4555C35.1092 14.4555 37.3529 16.7688 37.3529 20.2038C37.3529 23.6976 35.3462 25.9151 32.2851 25.9151V25.9195Z" fill="white"></path>
<path d="M60.3329 20.8472C60.1481 21.2625 60.0025 21.6951 59.8981 22.1386C59.7851 21.7082 59.6394 21.2886 59.4633 20.8799L55.4347 12.1053H54.7542L50.7735 20.8125C50.5887 21.256 50.43 21.7104 50.2974 22.1734C50.1843 21.7321 50.0495 21.2973 49.8886 20.8712L46.2492 11.5596H41.9989L49.0734 29.5196H50.6387L55.0934 19.6906L59.5155 29.5196H61.0873L68.1618 11.5596H63.9441C62.9179 14.2815 61.5221 17.7166 60.3329 20.8472Z" fill="white"></path>
<path d="M73.8361 15.8121C73.8361 14.7924 74.7884 14.0728 76.0819 14.0728C77.8842 14.0728 79.4496 15.4338 79.7213 15.7403L81.2171 12.951C80.4692 12.2988 78.3908 11.0117 75.6058 11.0117C71.8642 11.0117 69.6184 13.3597 69.6184 15.9447C69.6184 20.7059 77.2037 21.0799 77.2037 24.2432C77.2037 25.3672 76.2167 26.2172 74.6536 26.2172C72.8839 26.2172 70.912 25.1302 69.8901 24.141L68.3944 26.9999C70.2293 28.4609 72.5099 29.2523 74.8557 29.2436C78.7691 29.2436 81.2867 27.1021 81.2867 24.0388C81.2867 18.8058 73.8361 18.6688 73.8361 15.8121Z" fill="white"></path>
<path d="M88.5199 12.1118H84.5065V29.2892H88.5199V12.1118Z" fill="white"></path>
<path d="M92.0005 20.1669C92.0005 25.8195 95.9791 29.248 100.062 29.248C101.558 29.248 103.564 28.4675 104.721 27.2087V30.098C104.721 33.5353 102.682 34.6223 100.373 34.6223C97.5836 34.6223 95.2704 33.5005 94.3855 32.82L92.7136 35.8724C94.0398 36.7225 96.7618 37.9487 100.471 37.9487C104.449 37.9487 108.732 36.0442 108.732 29.5458V12.8532C107.136 11.9684 105.004 11.0879 101.456 11.0879C96.49 11.0879 92.0005 14.2468 92.0005 20.1669ZM104.721 15.0991V23.8063C103.867 25.1324 102.384 25.9195 100.808 25.8803C97.6097 25.8803 96.2161 22.6192 96.2161 20.1669C96.2161 16.0513 98.8011 14.3838 101.59 14.3838C102.673 14.399 103.738 14.6425 104.721 15.0991Z" fill="white"></path>
<path d="M137.774 11.6163C137.758 10.364 137.741 9.11172 137.726 7.85945C137.713 7.2268 137.602 5.41144 136.478 3.8548C136.084 3.29171 135.595 2.80254 135.032 2.40903C134.617 2.1264 134.171 1.8916 133.702 1.71115C132.852 1.36765 131.945 1.17633 131.027 1.15024H130.68L91.9288 1.11328C91.8614 1.11328 91.8071 1.16546 91.8049 1.23286C91.8049 1.24373 91.8049 1.2546 91.8093 1.26547C91.9158 1.73724 91.9701 2.21989 91.968 2.70471C91.968 3.17648 91.918 3.64826 91.8136 4.10916C91.7962 4.17656 91.8375 4.24396 91.9027 4.25918C91.9114 4.26135 91.9223 4.26352 91.9332 4.26352H112.85V29.2894H116.866V16.6319C117.409 15.9188 119.144 14.66 120.811 14.66C123.601 14.66 124.144 16.4275 124.144 19.4212V29.2894H128.158V17.3124C128.158 12.9925 126.116 11.1206 122.375 11.1206C119.722 11.1206 117.748 12.5511 116.866 13.3664V4.27222H128.297C129.853 4.28526 130.177 4.23743 130.762 4.29613C131.121 4.30701 131.478 4.37223 131.817 4.4918C132.371 4.74182 132.836 5.1549 133.147 5.67885C133.371 6.03975 133.53 6.43543 133.619 6.85068C133.741 7.36376 133.793 7.88989 133.771 8.41602V11.6315H130.538V14.8926H133.771V29.285H137.782V15.2339V14.8969H142V11.6358L137.774 11.6163Z" fill="white"></path>
<path d="M81.2171 4.13078C81.1128 3.66552 81.0584 3.19157 81.0606 2.71545C81.0606 2.23063 81.1128 1.74581 81.2236 1.27403C81.2389 1.20881 81.1997 1.14359 81.1345 1.12837C81.1258 1.12837 81.1171 1.1262 81.1062 1.12402L10.9878 1.15011C8.51152 1.19359 6.5092 2.11758 5.57652 3.23506C5.08952 3.8351 4.71775 4.51994 4.47861 5.25478C4.36773 5.63741 4.30251 6.02875 4.28076 6.42661C4.28076 6.69837 4.26337 7.11361 4.25033 7.62452C4.23946 8.0963 4.22641 8.47676 4.22641 8.5659V11.8988H1.33489V15.1599H4.18728L4.21337 21.6582C4.22206 22.0039 4.2025 22.3496 4.15467 22.6931C4.11988 23.0801 4.03074 23.4605 3.88726 23.8214C3.61332 24.4302 3.15894 24.9367 2.58281 25.2737C2.15451 25.4976 1.68926 25.6411 1.20879 25.6955C0.810932 25.7672 0.404379 25.7977 0 25.789V29.037H1.38489C2.57629 29.0501 3.75246 28.7805 4.81776 28.2457C5.5026 27.9065 6.12004 27.4456 6.64182 26.8869C8.0941 25.2933 8.21802 23.3062 8.22672 22.5952V15.1642H12.5271V11.9031H8.20715V7.6267C8.20715 7.32233 8.22889 7.01578 8.2702 6.71358C8.30934 6.40486 8.39195 6.10267 8.51587 5.81569C8.72893 5.39609 9.05722 5.04389 9.4616 4.80257C10.2856 4.25253 11.0682 4.27861 13.7076 4.27209C14.1315 4.27209 14.8859 4.27209 15.8512 4.25905C15.8382 12.5206 15.8251 20.7821 15.8143 29.0436H19.8385V4.28079L81.0932 4.26992C81.1584 4.27427 81.2149 4.22209 81.2193 4.15687C81.2193 4.14817 81.2193 4.13947 81.2193 4.13078H81.2171Z" fill="white"></path>
<path d="M86.5153 5.28301C87.9742 5.28301 89.1569 4.10037 89.1569 2.64151C89.1569 1.18264 87.9742 0 86.5153 0C85.0565 0 83.8738 1.18264 83.8738 2.64151C83.8738 4.10037 85.0565 5.28301 86.5153 5.28301Z" fill="#FBBE11"></path>
</g>
<defs>
<clipPath id="clip0_870_740">
<rect width="142" height="37.9486" fill="white"></rect>
</clipPath>
</defs>
</svg>