<?xml version="1.0" encoding="UTF-8" standalone="no"?>
<!DOCTYPE svg PUBLIC "-//W3C//DTD SVG 1.1//EN" "http://www.w3.org/Graphics/SVG/1.1/DTD/svg11.dtd">
<svg width="100%" height="100%" viewBox="0 0 500 500" version="1.1" xmlns="http://www.w3.org/2000/svg" xmlns:xlink="http://www.w3.org/1999/xlink" xml:space="preserve" xmlns:serif="http://www.serif.com/" style="fill-rule:evenodd;clip-rule:evenodd;stroke-linejoin:round;stroke-miterlimit:2;">
    <g>
        <g transform="matrix(1.04547,0,0,1.04547,-18.7446,-18.8306)">
            <circle cx="257.009" cy="258.9" r="232.86" style="fill:rgb(21,32,84);"/>
        </g>
        <g transform="matrix(1,0,0,1,6.83486,3.1995)">
            <g transform="matrix(1.02665,0,0,1.02665,7.47941,98.3706)">
                <path d="M230.586,82.946L284.749,114.217L284.749,176.76L230.586,208.031L176.422,176.76L176.422,114.217L230.586,82.946Z" style="fill:white;"/>
            </g>
            <g transform="matrix(1,0,0,1,-6.83486,-3.1995)">
                <path d="M86.398,215.433L86.398,157.414L223.132,78.471L223.132,147.16L148.942,189.994L148.942,306.429L223.132,349.262L223.132,425.211L86.398,346.268L86.398,283.498L123.7,262.429L123.7,234.084L86.398,215.433ZM413.502,283.804L413.502,346.268L278.44,424.246L278.44,348.097L350.612,306.429L350.612,189.994L278.44,148.325L278.44,79.436L413.502,157.414L413.502,215.423L413.254,215.423L413.254,215.418L413.243,215.423L413.203,215.423L413.203,215.443L375.921,234.084L375.921,262.429L413.203,283.487L413.203,283.804L413.502,283.804Z" style="fill:white;"/>
            </g>
        </g>
    </g>
</svg>
