<svg viewBox="0 0 122 41" width="122" height="41" xmlns="http://www.w3.org/2000/svg">
<path d="M0 6.30567V40.4361H12.9867V6.30567H0Z" fill="#fff"></path>
<path fill="#fff" d="M34.4312 8.47958L33.1073 4.60008L28.6187 5.71276L27.9608 0.980469H24.287L23.6265 5.71276L19.0999 4.60008L17.6895 8.47958L22.1348 10.4532L19.414 14.6982L22.641 16.9073L26.1848 13.1604L29.6501 16.8315L32.6227 14.4816L29.91 10.4532L34.4312 8.47958Z" width="17" height="16" style="will-change: transform; transform: translate3d(0px, 0px, 0px) scale3d(1, 1, 1) rotateX(0deg) rotateY(0deg) rotateZ(0deg) skew(0deg, 0deg); transform-style: preserve-3d;"></path>
<path d="M108.697 6.30557L96.3406 28.0747H96.1836L83.9847 6.30557H70.2616V32.4875L56.5899 6.30557H42.6042L25.1992 40.436H38.8709L41.2885 34.9159H57.6403L59.955 40.436H81.7241V22.3948L91.9251 40.436H100.234L110.592 21.9211V40.436H122.003V6.30557H108.697ZM44.9677 26.4503L47.9131 19.7201L49.5429 15.7756H49.6999L51.2241 19.7715L54.064 26.4503H44.9677Z" fill="#fff"></path>
</svg>