<?xml version="1.0" encoding="UTF-8" standalone="no"?>
<!DOCTYPE svg PUBLIC "-//W3C//DTD SVG 1.1//EN" "http://www.w3.org/Graphics/SVG/1.1/DTD/svg11.dtd">
<svg width="100%" height="100%" viewBox="0 0 50 50" version="1.1" xmlns="http://www.w3.org/2000/svg" xmlns:xlink="http://www.w3.org/1999/xlink" xml:space="preserve" xmlns:serif="http://www.serif.com/" style="fill-rule:evenodd;clip-rule:evenodd;stroke-linejoin:round;stroke-miterlimit:2;">
    <g transform="matrix(1,0,0,1,-7.86692,-7.33915)">
        <g transform="matrix(1,0,0,1,6.38373,7.35982)">
            <g transform="matrix(1.2307,0,0,1.2307,0.416273,0.792641)">
                <circle cx="21.181" cy="19.653" r="20.314" style="fill:rgb(183,153,255);"/>
            </g>
        </g>
        <g transform="matrix(1,0,0,1,6.38373,7.35982)">
            <g transform="matrix(2.44942,0,0,2.44942,-37.0811,2.05581)">
                <path d="M34.431,8.48L33.107,4.6L28.619,5.713L27.961,0.98L24.287,0.98L23.627,5.713L19.1,4.6L17.69,8.48L22.135,10.453L19.414,14.698L22.641,16.907L26.185,13.16L29.65,16.831L32.623,14.482L29.91,10.453L34.431,8.48Z" style="fill:white;fill-rule:nonzero;"/>
            </g>
        </g>
    </g>
</svg>
