<?xml version="1.0" encoding="UTF-8" standalone="no"?>
<!DOCTYPE svg PUBLIC "-//W3C//DTD SVG 1.1//EN" "http://www.w3.org/Graphics/SVG/1.1/DTD/svg11.dtd">
<svg width="100%" height="100%" viewBox="0 0 500 500" version="1.1" xmlns="http://www.w3.org/2000/svg" xmlns:xlink="http://www.w3.org/1999/xlink" xml:space="preserve" xmlns:serif="http://www.serif.com/" style="fill-rule:evenodd;clip-rule:evenodd;stroke-linejoin:round;stroke-miterlimit:2;">
    <path d="M483.157,99.207C483.157,53.525 446.069,16.438 400.387,16.438L95.833,16.438C50.152,16.438 13.064,53.525 13.064,99.207L13.064,393.251C13.064,438.933 50.152,476.021 95.833,476.021L400.387,476.021C446.069,476.021 483.157,438.933 483.157,393.251L483.157,99.207ZM323.963,338.003L323.963,187.241C323.963,185.283 324.746,184.5 326.508,184.5L365.276,184.5C367.038,184.5 367.821,185.479 367.821,187.241L367.821,338.003C367.821,340.157 367.038,341.136 365.276,341.136L326.9,341.136C324.942,341.136 323.963,339.961 323.963,338.003ZM240.163,291.404L167.327,291.404L152.447,337.415C152.055,339.178 150.489,340.352 148.727,340.157L111.917,340.157C109.764,340.157 109.176,338.982 109.764,336.632L172.81,155.131C173.397,153.173 173.984,151.019 174.767,148.669C175.551,144.558 175.942,140.25 175.942,135.943C175.746,134.964 176.53,133.985 177.509,133.789L228.219,133.789C229.786,133.789 230.569,134.376 230.765,135.355L302.23,337.024C302.817,339.178 302.23,340.157 300.272,340.157L259.351,340.157C257.98,340.352 256.61,339.373 256.218,338.003L240.163,291.404ZM178.683,251.657L228.415,251.657C227.24,247.546 225.674,242.651 223.912,237.56C222.15,232.274 220.388,226.596 218.625,220.722C216.668,214.652 214.905,208.778 212.947,202.709C210.989,196.639 209.227,190.961 207.661,185.283C206.095,179.801 204.724,174.71 203.353,170.011L202.962,170.011C201.2,178.43 199.046,186.849 196.305,195.269C193.368,204.667 190.431,214.456 187.298,224.246C184.557,234.232 181.62,243.434 178.683,251.657ZM345.892,168.053C339.431,168.249 333.165,165.704 328.466,161.2C323.963,156.305 321.613,149.844 321.809,143.187C321.613,136.53 324.159,130.265 328.858,125.761C333.557,121.258 339.822,118.909 346.284,118.909C353.92,118.909 359.793,121.258 364.101,125.761C368.408,130.461 370.758,136.726 370.562,143.187C370.758,149.844 368.408,156.305 363.709,161.2C359.206,165.899 352.549,168.445 345.892,168.053Z" style="fill:rgb(255,154,0);"/>
</svg>
