<?xml version="1.0" encoding="UTF-8" standalone="no"?>
<!DOCTYPE svg PUBLIC "-//W3C//DTD SVG 1.1//EN" "http://www.w3.org/Graphics/SVG/1.1/DTD/svg11.dtd">
<svg width="100%" height="100%" viewBox="0 0 500 500" version="1.1" xmlns="http://www.w3.org/2000/svg" xmlns:xlink="http://www.w3.org/1999/xlink" xml:space="preserve" xmlns:serif="http://www.serif.com/" style="fill-rule:evenodd;clip-rule:evenodd;stroke-linejoin:round;stroke-miterlimit:2;">
    <path d="M483.157,99.207C483.157,53.525 446.069,16.438 400.387,16.438L95.833,16.438C50.152,16.438 13.064,53.525 13.064,99.207L13.064,393.251C13.064,438.933 50.152,476.021 95.833,476.021L400.387,476.021C446.069,476.021 483.157,438.933 483.157,393.251L483.157,99.207ZM296.896,345.508C282.396,345.704 267.897,342.765 254.77,336.691C242.426,331.008 232.237,321.604 225.183,310.043C217.934,298.091 214.407,283.2 214.407,265.37C214.211,250.871 217.934,236.568 225.183,224.028C232.629,211.292 243.405,200.712 256.337,193.658C270.053,186.017 286.511,182.294 305.909,182.294C306.888,182.294 308.26,182.294 310.023,182.49C311.787,182.686 313.746,182.686 316.097,182.882L316.097,120.966C316.097,119.595 316.685,118.811 318.057,118.811L357.831,118.811C358.811,118.615 359.595,119.399 359.791,120.183L359.791,307.104C359.791,310.631 359.987,314.55 360.183,318.861C360.574,322.975 360.77,326.894 360.966,330.225C360.966,331.596 360.378,332.772 359.007,333.36C348.818,337.67 338.042,340.805 327.07,342.765C317.273,344.528 307.084,345.508 296.896,345.508ZM183.645,138.209L183.645,340.021C183.645,342.177 182.666,343.156 180.902,343.156L142.499,343.156C140.736,343.156 139.952,342.177 139.952,340.021L139.952,138.209C139.952,136.445 140.931,135.661 142.695,135.661L180.902,135.661C182.078,135.465 183.253,136.249 183.449,137.621C183.645,137.817 183.645,138.013 183.645,138.209ZM316.097,306.321L316.097,220.109C314.334,219.717 312.57,219.326 310.807,219.13C308.652,218.934 306.496,218.738 304.341,218.738C296.7,218.738 289.058,220.305 282.2,223.832C275.539,227.163 269.857,232.061 265.546,238.331C261.235,244.601 259.08,253.026 259.08,263.215C258.884,270.073 260.06,276.93 262.411,283.396C264.37,288.687 267.309,293.389 271.228,297.308C274.951,300.835 279.457,303.578 284.552,305.145C289.842,306.908 295.328,307.692 300.814,307.692C303.753,307.692 306.496,307.496 309.044,307.3C311.591,307.496 313.942,307.104 316.097,306.321Z" style="fill:rgb(255,51,102);"/>
</svg>
