<?xml version="1.0" encoding="UTF-8" standalone="no"?>
<!DOCTYPE svg PUBLIC "-//W3C//DTD SVG 1.1//EN" "http://www.w3.org/Graphics/SVG/1.1/DTD/svg11.dtd">
<svg width="100%" height="100%" viewBox="0 0 500 500" version="1.1" xmlns="http://www.w3.org/2000/svg" xmlns:xlink="http://www.w3.org/1999/xlink" xml:space="preserve" xmlns:serif="http://www.serif.com/" style="fill-rule:evenodd;clip-rule:evenodd;stroke-linejoin:round;stroke-miterlimit:2;">
    <path d="M483.157,99.207C483.157,53.525 446.069,16.438 400.387,16.438L95.833,16.438C50.152,16.438 13.064,53.525 13.064,99.207L13.064,393.251C13.064,438.933 50.152,476.021 95.833,476.021L400.387,476.021C446.069,476.021 483.157,438.933 483.157,393.251L483.157,99.207ZM388.532,226.079C382.645,222.94 376.365,220.781 369.694,219.408C362.433,217.838 355.173,216.857 347.716,216.857C343.791,216.66 339.67,217.249 335.942,218.23C333.391,218.819 331.233,220.193 329.859,222.155C328.878,223.725 328.289,225.687 328.289,227.453C328.289,229.219 329.074,230.985 330.251,232.555C332.017,234.714 334.372,236.48 336.923,237.853C341.437,240.208 346.146,242.367 350.856,244.329C361.452,247.861 371.656,252.767 381.075,258.654C387.551,262.774 392.849,268.269 396.577,274.941C399.717,281.22 401.287,288.088 401.09,295.152C401.287,304.375 398.539,313.598 393.437,321.251C387.943,329.1 380.29,335.183 371.46,338.715C361.844,342.836 350.071,344.995 335.942,344.995C326.916,344.995 318.085,344.21 309.255,342.444C302.387,341.266 295.519,339.108 289.239,336.164C287.866,335.379 286.885,334.006 287.081,332.436L287.081,298.292C287.081,297.703 287.277,296.918 287.866,296.526C288.454,296.134 289.043,296.33 289.632,296.722C297.285,301.235 305.33,304.375 313.964,306.337C321.421,308.3 329.27,309.281 337.119,309.281C344.576,309.281 349.874,308.3 353.407,306.534C356.546,305.16 358.705,301.824 358.705,298.292C358.705,295.545 357.135,292.994 353.995,290.443C350.856,287.892 344.38,284.948 334.765,281.22C324.757,277.688 315.534,272.978 306.9,267.092C300.817,262.774 295.715,257.084 291.987,250.412C288.847,244.133 287.277,237.265 287.473,230.397C287.473,221.959 289.828,213.913 294.145,206.653C299.051,198.804 306.311,192.524 314.749,188.6C323.972,183.89 335.55,181.732 349.482,181.732C357.527,181.732 365.769,182.32 373.814,183.498C379.701,184.283 385.392,185.852 390.69,188.011C391.475,188.207 392.26,188.992 392.653,189.777C392.849,190.562 393.045,191.347 393.045,192.132L393.045,224.117C393.045,224.902 392.653,225.687 392.064,226.079C390.298,226.472 389.317,226.472 388.532,226.079ZM117.735,338.323L117.735,136.402C117.735,135.029 118.323,134.244 119.697,134.244C123.033,134.244 126.172,134.244 130.686,134.048C135.395,133.851 140.301,133.851 145.599,133.655C150.897,133.459 156.588,133.459 162.671,133.263C168.754,133.067 174.641,133.067 180.528,133.067C196.619,133.067 209.963,135.029 220.951,139.15C230.763,142.486 239.789,147.98 247.246,155.24C253.526,161.52 258.431,169.173 261.571,177.611C264.514,185.852 266.084,194.29 266.084,203.121C266.084,219.996 262.16,233.929 254.31,244.918C246.461,255.906 235.472,264.148 222.717,268.858C209.374,273.763 194.657,275.529 178.566,275.529C173.856,275.529 170.717,275.529 168.754,275.333C166.792,275.137 164.045,275.137 160.316,275.137L160.316,338.127C160.513,339.5 159.531,340.678 158.158,340.874L120.089,340.874C118.519,340.874 117.735,340.089 117.735,338.323ZM160.513,172.116L160.513,238.049C163.26,238.246 165.811,238.442 168.166,238.442L178.566,238.442C186.219,238.442 193.872,237.265 201.132,234.91C207.412,233.144 212.906,229.415 217.223,224.51C221.344,219.604 223.306,212.932 223.306,204.298C223.502,198.215 221.933,192.132 218.793,186.833C215.457,181.732 210.747,177.807 205.057,175.648C197.796,172.705 189.947,171.528 181.902,171.724C176.8,171.724 172.286,171.724 168.558,171.92C164.633,171.724 161.886,171.92 160.513,172.116Z" style="fill:rgb(49,168,255);"/>
</svg>
