<?xml version="1.0" encoding="UTF-8" standalone="no"?>
<!DOCTYPE svg PUBLIC "-//W3C//DTD SVG 1.1//EN" "http://www.w3.org/Graphics/SVG/1.1/DTD/svg11.dtd">
<svg width="100%" height="100%" viewBox="0 0 500 500" version="1.1" xmlns="http://www.w3.org/2000/svg" xmlns:xlink="http://www.w3.org/1999/xlink" xml:space="preserve" xmlns:serif="http://www.serif.com/" style="fill-rule:evenodd;clip-rule:evenodd;stroke-linejoin:round;stroke-miterlimit:2;">
    <path d="M483.157,99.207C483.157,53.525 446.069,16.438 400.387,16.438L95.833,16.438C50.152,16.438 13.064,53.525 13.064,99.207L13.064,393.251C13.064,438.933 50.152,476.021 95.833,476.021L400.387,476.021C446.069,476.021 483.157,438.933 483.157,393.251L483.157,99.207ZM301.895,183.849L336.253,183.849C338.217,183.849 339.787,185.223 340.376,186.99C340.965,188.561 341.358,190.131 341.554,191.898C341.947,193.862 342.34,196.021 342.536,197.985C342.732,200.144 342.929,202.5 342.929,205.053C348.819,198.181 355.886,192.487 363.936,188.168C372.967,183.064 383.373,180.511 393.779,180.511C395.153,180.315 396.331,181.297 396.527,182.671L396.527,221.741C396.527,223.312 395.546,223.901 393.386,223.901C386.318,223.704 379.054,224.293 372.182,225.864C366.488,227.042 360.991,228.809 355.69,231.165C351.96,232.932 348.426,235.288 345.677,238.429L345.677,338.558C345.677,340.522 344.892,341.307 343.125,341.307L304.448,341.307C302.877,341.503 301.503,340.522 301.306,338.951L301.306,229.398C301.306,224.686 301.306,219.778 301.11,214.673C300.914,209.568 300.914,204.464 300.717,199.359C300.717,194.843 300.325,190.524 299.932,186.008C299.736,185.027 300.325,184.045 301.306,183.849C301.306,183.653 301.699,183.653 301.895,183.849ZM125.197,338.558L125.197,136.337C125.197,134.962 125.786,134.177 127.16,134.177C130.498,134.177 133.639,134.177 138.155,133.981C142.867,133.784 147.775,133.784 153.076,133.588C158.377,133.392 164.07,133.392 170.157,133.195C176.243,132.999 182.133,132.999 188.023,132.999C204.122,132.999 217.473,134.962 228.467,139.085C238.284,142.423 247.315,147.92 254.776,155.184C261.058,161.467 265.967,169.124 269.108,177.566C272.053,185.812 273.623,194.254 273.623,203.089C273.623,219.974 269.697,233.913 261.844,244.908C253.99,255.903 242.996,264.149 230.234,268.86C216.884,273.769 202.159,275.536 186.06,275.536C181.348,275.536 178.206,275.536 176.243,275.339C174.28,275.143 171.531,275.143 167.801,275.143L167.801,338.166C167.997,339.54 167.015,340.718 165.641,340.914L127.553,340.914C125.982,340.914 125.197,340.129 125.197,338.362L125.197,338.558ZM167.997,172.265L167.997,238.233C170.746,238.429 173.298,238.625 175.654,238.625L186.06,238.625C193.716,238.625 201.373,237.447 208.638,235.091C214.92,233.324 220.418,229.594 224.737,224.686C228.86,219.778 230.823,213.102 230.823,204.464C231.019,198.377 229.449,192.291 226.308,186.99C222.97,181.886 218.258,177.959 212.564,175.799C205.3,172.854 197.447,171.676 189.397,171.873C184.293,171.873 179.777,171.873 176.047,172.069C172.12,171.873 169.371,172.069 167.997,172.265Z" style="fill:rgb(153,153,255);"/>
</svg>
