<?xml version="1.0" encoding="UTF-8" standalone="no"?>
<!DOCTYPE svg PUBLIC "-//W3C//DTD SVG 1.1//EN" "http://www.w3.org/Graphics/SVG/1.1/DTD/svg11.dtd">
<svg width="100%" height="100%" viewBox="0 0 500 500" version="1.1" xmlns="http://www.w3.org/2000/svg" xmlns:xlink="http://www.w3.org/1999/xlink" xml:space="preserve" xmlns:serif="http://www.serif.com/" style="fill-rule:evenodd;clip-rule:evenodd;stroke-linejoin:round;stroke-miterlimit:2;">
    <path d="M483.157,99.207C483.157,53.525 446.069,16.438 400.387,16.438L95.833,16.438C50.152,16.438 13.064,53.525 13.064,99.207L13.064,393.251C13.064,438.933 50.152,476.021 95.833,476.021L400.387,476.021C446.069,476.021 483.157,438.933 483.157,393.251L483.157,99.207ZM350.786,343.752C336.285,343.948 321.784,341.008 308.655,334.934C296.31,329.251 286.12,319.845 279.066,308.284C271.815,296.33 268.288,281.438 268.288,263.606C268.092,249.105 271.815,234.8 279.066,222.259C286.512,209.522 297.29,198.941 310.223,191.886C323.94,184.244 340.4,180.521 359.799,180.521C360.779,180.521 362.151,180.521 363.915,180.717C365.678,180.913 367.638,180.913 369.989,181.109L369.989,119.187C369.989,117.815 370.577,117.031 371.949,117.031L411.728,117.031C412.707,116.835 413.491,117.619 413.687,118.403L413.687,305.344C413.687,308.872 413.883,312.791 414.079,317.102C414.471,321.217 414.667,325.136 414.863,328.467C414.863,329.839 414.275,331.015 412.903,331.602C402.714,335.913 391.936,339.049 380.963,341.008C370.969,342.772 360.975,343.752 350.786,343.752ZM260.254,137.019L201.467,234.017L264.173,336.893C264.565,337.677 264.761,338.461 264.565,339.245C264.369,340.029 263.585,339.441 262.41,339.637L217.536,339.637C214.401,339.637 212.245,339.441 210.873,337.481C206.758,329.251 202.447,321.217 198.332,312.987C194.217,304.953 189.71,296.722 185.007,288.296C180.304,279.87 175.601,271.444 170.898,262.822L170.507,262.822C166.391,271.248 161.884,279.674 157.377,288.1C152.871,296.526 148.364,304.953 144.053,313.183C139.546,321.413 135.039,329.839 130.532,337.873C129.748,339.833 128.18,340.029 126.025,340.029L82.914,340.029C82.131,340.029 81.543,340.42 81.543,339.441C81.347,338.657 81.543,337.873 81.935,337.285L142.877,237.348L83.502,136.823C82.914,136.039 82.718,135.255 83.11,134.863C83.502,134.275 84.286,134.079 85.07,134.079L129.552,134.079C130.532,134.079 131.511,134.275 132.295,134.471C133.079,134.863 133.667,135.451 134.255,136.235C137.978,144.661 142.289,153.087 146.796,161.513C151.499,169.939 156.006,178.169 160.905,186.399C165.608,194.63 169.919,202.86 174.034,211.286L174.426,211.286C178.541,202.664 182.852,194.238 187.163,186.008C191.474,177.777 195.981,169.547 200.488,161.317C204.995,153.087 209.306,144.661 213.617,136.627C213.813,135.843 214.205,135.059 214.792,134.667C215.576,134.275 216.36,134.079 217.34,134.275L258.686,134.275C259.666,134.079 260.646,134.667 260.842,135.647C261.038,135.843 260.646,136.627 260.254,137.019ZM369.989,304.561L369.989,218.34C368.226,217.948 366.462,217.556 364.698,217.36C362.543,217.164 360.387,216.969 358.232,216.969C350.59,216.969 342.947,218.536 336.089,222.063C329.426,225.395 323.744,230.293 319.433,236.564C315.122,242.835 312.966,251.261 312.966,261.45C312.77,268.309 313.946,275.167 316.297,281.634C318.257,286.925 321.196,291.628 325.115,295.547C328.839,299.074 333.345,301.817 338.44,303.385C343.731,305.148 349.218,305.932 354.705,305.932C357.644,305.932 360.387,305.736 362.935,305.54C365.482,305.736 367.638,305.344 369.989,304.561Z" style="fill:rgb(255,97,246);"/>
</svg>
